<?xml version="1.0" encoding="UTF-8"?>
<svg xmlns="http://www.w3.org/2000/svg" xmlns:xlink="http://www.w3.org/1999/xlink" width="39px" height="70px" viewBox="0 0 39 69" version="1.1">
<g id="surface1">
<path style=" stroke:none;fill-rule:nonzero;fill:rgb(80.784314%,86.27451%,12.941176%);fill-opacity:1;" d="M 4.085938 68.933594 C 1.835938 68.921875 0.0195312 67.117188 0.0195312 64.894531 L 0.0195312 4.105469 C -0.0273438 2.632812 0.742188 1.253906 2.027344 0.503906 C 3.308594 -0.246094 4.902344 -0.246094 6.1875 0.503906 C 7.46875 1.253906 8.238281 2.632812 8.195312 4.105469 L 8.195312 64.894531 C 8.195312 65.96875 7.761719 67 6.992188 67.757812 C 6.21875 68.515625 5.175781 68.941406 4.085938 68.933594 Z M 4.085938 68.933594 "/>
<path style=" stroke:none;fill-rule:nonzero;fill:rgb(31.764706%,69.411765%,24.313725%);fill-opacity:1;" d="M 4.089844 68.933594 C 2.191406 68.917969 0.554688 67.613281 0.136719 65.785156 C -0.28125 63.957031 0.628906 62.082031 2.332031 61.261719 L 26.984375 49.699219 L 1.664062 31.253906 C -0.152344 29.929688 -0.542969 27.402344 0.796875 25.605469 C 2.136719 23.808594 4.695312 23.425781 6.511719 24.75 L 37.335938 47.1875 C 38.503906 48.027344 39.136719 49.410156 38.996094 50.828125 C 38.859375 52.246094 37.96875 53.488281 36.664062 54.089844 L 5.847656 68.542969 C 5.296875 68.804688 4.699219 68.9375 4.089844 68.933594 Z M 4.089844 68.933594 "/>
<path style=" stroke:none;fill-rule:nonzero;fill:rgb(80.784314%,86.27451%,12.941176%);fill-opacity:1;" d="M 4.089844 45.039062 C 2.3125 45.054688 0.730469 43.929688 0.179688 42.261719 C -0.375 40.59375 0.226562 38.761719 1.664062 37.730469 L 26.984375 19.296875 L 2.332031 7.753906 C 0.292969 6.796875 -0.578125 4.386719 0.386719 2.367188 C 1.355469 0.347656 3.796875 -0.511719 5.839844 0.445312 L 36.664062 14.902344 C 37.964844 15.507812 38.84375 16.75 38.980469 18.164062 C 39.121094 19.578125 38.496094 20.960938 37.335938 21.804688 L 6.511719 44.253906 C 5.8125 44.765625 4.960938 45.042969 4.089844 45.039062 Z M 4.089844 45.039062 "/>
<path style=" stroke:none;fill-rule:nonzero;fill:rgb(11.764706%,47.843137%,26.666667%);fill-opacity:1;" d="M 8.175781 25.957031 L 8.175781 43.042969 L 19.902344 34.503906 Z M 8.175781 25.957031 "/>
<path style=" stroke:none;fill-rule:nonzero;fill:rgb(100%,100%,100%);fill-opacity:1;" d="M 0 18.796875 L 8.175781 18.796875 L 8.175781 38.488281 L 0 38.488281 Z M 0 18.796875 "/>
<path style=" stroke:none;fill-rule:nonzero;fill:rgb(80.784314%,86.27451%,12.941176%);fill-opacity:1;" d="M 8.175781 4.105469 C 8.222656 2.632812 7.453125 1.253906 6.167969 0.503906 C 4.886719 -0.246094 3.292969 -0.246094 2.007812 0.503906 C 0.722656 1.253906 -0.0429688 2.632812 0 4.105469 L 0 54.933594 L 8.175781 54.933594 Z M 8.175781 4.105469 "/>
</g>
</svg>
