<!-- Generator: Adobe Illustrator 27.2.0, SVG Export Plug-In . SVG Version: 6.00 Build 0)  --><svg version="1.1" id="Слой_1" xmlns="http://www.w3.org/2000/svg" xmlns:xlink="http://www.w3.org/1999/xlink" x="0px" y="0px" viewBox="0 0 766.2 982.3" style="enable-background:new 0 0 766.2 982.3;" xml:space="preserve" height="80" width="62"><style type="text/css">	.st0{fill:#6192C8;}	.st1{fill:#F7A600;}	.st2{fill:#F7921C;}	.st3{fill:#F8921B;}	.st4{fill:#F7921A;}	.st5{fill:#C2C2C2;}	.st6{fill:#C3C3C3;}	.st7{fill:#F7931B;}	.st8{fill:#A9C3DA;}	.st9{fill:#A0BCDC;}	.st10{fill:#B2CAE4;}	.st11{fill:#AAC8E8;}	.st12{fill:#B3CCE7;}	.st13{fill:#B2CAE1;}	.st14{fill:#ADC7E5;}	.st15{fill:#F6D686;}	.st16{fill:#CE9D5E;}	.st17{fill:#AFC8E6;}	.st18{fill:#AFCAE7;}	.st19{fill:#B1CAE5;}	.st20{fill:#FEB54F;}	.st21{fill:#ABC3DD;}	.st22{fill:#FEF2B9;}	.st23{fill:#F5D37A;}	.st24{fill:#FCF2A8;}	.st25{fill:#ABC7E0;}	.st26{fill:#F8E4B3;}	.st27{fill:#F0D882;}	.st28{fill:#A4BED8;}	.st29{fill:#B5CEE8;}	.st30{fill:#DCBA6E;}	.st31{fill:#CE9D62;}	.st32{fill:#B0C7E0;}	.st33{fill:#ACCAE7;}	.st34{fill:#9ABCE5;}	.st35{fill:#FEB75B;}	.st36{fill:#D09F67;}	.st37{fill:#9FC6EF;}	.st38{fill:#ADC8E5;}	.st39{fill:#B3CAE4;}	.st40{fill:#C1D1E4;}	.st41{fill:#A6C2E1;}	.st42{fill:#ABC3DC;}	.st43{fill:#AAC4E2;}	.st44{fill:#B5C9E2;}	.st45{fill:#B4CAE2;}	.st46{fill:#AECAE3;}	.st47{fill:#F5DE8C;}	.st48{fill:#B0C5E0;}	.st49{fill:#B7CFF6;}	.st50{fill:#A8C0DA;}	.st51{fill:#A4BEDE;}	.st52{fill:#E1A461;}	.st53{fill:#ACC7E4;}	.st54{fill:#AAC6E1;}	.st55{fill:#B3CCE5;}	.st56{fill:#A9C3E1;}	.st57{fill:#B4D0EF;}	.st58{fill:#A7C6E2;}	.st59{fill:#A6C5E6;}	.st60{fill:#BCD4EF;}	.st61{fill:#D3B17C;}	.st62{fill:#FAD27E;}	.st63{fill:#ACC4E5;}	.st64{fill:#B2CFEA;}	.st65{fill:#B2CCE6;}	.st66{fill:#F5D884;}	.st67{fill:#AEC7E1;}	.st68{fill:#AFC7E1;}	.st69{fill:#D4B37F;}	.st70{fill:#AAC3E0;}	.st71{fill:#E2CDAC;}	.st72{fill:#AFC8E4;}	.st73{fill:#DFBC9B;}	.st74{fill:#A8C4E2;}	.st75{fill:#B1CBE6;}	.st76{fill:#F8D681;}	.st77{fill:#FACD81;}	.st78{fill:#FAC981;}	.st79{fill:#AACAE2;}	.st80{fill:#F1D5A6;}	.st81{fill:#FAD384;}	.st82{fill:#B2C8E7;}	.st83{fill:#B3CEE9;}	.st84{fill:#AFC4E1;}	.st85{fill:#FDFEFC;}	.st86{fill:#F4D481;}	.st87{fill:#F3CD6D;}	.st88{fill:#F3D07F;}	.st89{fill:#F1C861;}	.st90{fill:#F7D795;}	.st91{fill:#F9D88B;}	.st92{fill:#F5CB5E;}	.st93{fill:#F8D590;}	.st94{fill:#F5C663;}	.st95{fill:#F8D189;}	.st96{fill:#F4CB69;}	.st97{fill:#F6CD76;}	.st98{fill:#F7CE75;}	.st99{fill:#F1BE58;}	.st100{fill:#F9D38C;}	.st101{fill:#FADB9D;}	.st102{fill:#F7CF7B;}	.st103{fill:#F7C45A;}	.st104{fill:#F2C86C;}	.st105{fill:#F2C144;}	.st106{fill:#F4D484;}	.st107{fill:#F3D289;}	.st108{fill:#F7D691;}	.st109{fill:#F4CF76;}	.st110{fill:#F9DDAB;}	.st111{fill:#F5D184;}	.st112{fill:#FFFFFF;}	.st113{fill:#FDFEFD;}	.st114{fill:#FFD284;}	.st115{fill:#CF9D60;}	.st116{fill:#F7A601;}	.st117{fill:#F4D071;}	.st118{fill:#F2D07C;}	.st119{fill:#F3D284;}	.st120{fill:#F2E4AB;}	.st121{fill:#F5D082;}	.st122{fill:#EECB6C;}	.st123{fill:#F0CB78;}	.st124{fill:#F3CB69;}	.st125{fill:#F4CD7B;}</style><g>	<path class="st0" d="M225.5,737.4c-14.8-16.7-27.2-34.9-36.3-55.4c-2.7-6-5.1-12.2-6.7-18.6c-2.3-7.1-4.1-14.4-4.3-21.7   c-0.3-11.7-1.5-23.6,2.5-35c0.5-1.4-0.1-3,0.7-4.4c2.2-6.9,4.4-13.8,6.5-20.7c2.5-8.3,6.1-16.1,9.3-24.1c1.2-3,2.1-6.2,3.2-9.3   c2.4-2.1,1.4-5.5,3.1-7.9c0.7-2,1.4-4,2.1-6c3-8.3,5.7-16.7,7.8-25.3c3-11.1,5.9-22.3,7.1-33.7l0,0c1.9-8,2.7-16.2,2.1-24.4   c-0.5-6.9-0.5-13.8-2.2-20.5l0,0c-1.2-6.6-2-13.3-4.2-19.7c-1.1-3.4-1.4-7-2.9-10.2c-1.7-1.3-0.2-3.8-1.8-5.1   c-0.9-4.4-2.5-8.7-4.1-12.9c-7.2-18.2-15.5-35.7-27.9-51.1c-4.7-6.2-9.7-12.2-11.5-20c-0.3-4.4-0.3-8.8,1.4-13   c3.4-6,8.6-9.8,15-12.1c10.5-4.2,21.1-4.8,31.9-1.7c20.9,4.5,36.7,17,51.1,31.9c1.4,2.2,3.8,3.6,4.9,6c13.4,17,22.8,35.9,28.3,56.8   c1,3.8,2.5,7.4,3.8,11.1c1.8,3.4,1.4,7.5,3,11c0,0.3,0.1,0.6,0.1,1c4.1,17.8,6.7,35.9,7.5,54.2c0.1,1.4-0.8,3.3,0.8,4.1   c2,1,2.8-1.2,4-2.1c0.5-0.4,1-0.8,1.5-1.3c18.4-14.5,36.6-29.2,55.1-43.5c21.5-16.7,43.1-33.2,65-49.5   c28.4-21.1,57.3-41.5,87.5-59.8c12-7.3,24.2-14.3,37.5-19.3c3.3-1.2,6.8-2.2,10-3.8c2.4-1.8,5.6-1.3,8-2.9c3-0.7,6-1.3,9-2   c9.3-2.3,18.6-2.6,28-1c7.7,3.2,15,7,16.5,16.3c1.1,6.7-1.6,12.7-4.8,18.4c-6,10.6-14.2,19.6-22.8,28.2   c-19.8,19.8-42,36.7-63.8,54.2c-21.3,17.2-42.1,35.1-62.1,53.8c-3.2,2.5-5.7,5.6-8.8,8.2l0,0c-3.4,6-9.2,6-14.8,5.2   c-15.2-2-30.4-2-45.6-1.9c-11.9,0.1-23.8-0.5-35.7,1.4c-18.6,1.7-34.3,9.6-48,22c-4,3.3-7.6,7-11,11c-14.2,17.5-28,35.3-39,55   c-2.8,5.1-5,10.5-6.9,16l0,0c-2.2,6.2-2.8,12.5-1,19c2.4,5.6,6.8,9.2,12,12c4.4,2.1,9.2,3.3,14,4c0.3,0,0.6,0,1,0.1   c1.7,1,3.5,0.3,5.3,0.5c2.5,0.2,2.8,1.4,1.4,3.2c-1.3,1.7-3,3-4.6,4.4c-6.7,7-13.5,14-19,22c-3.1,3.9-5.2,8.3-7.1,12.9l0,0   c-3.7,11.9,0.9,19.1,10.9,24.7c0.7,0.4,1.4,0.8,2,1.4c1.7,0.6,3.4,1.3,5.1,1.9c8,2.5,16.2,4.4,24.7,4.5c14.3,0.2,28.5-0.2,42.2-4.7   c2.9-1,4.6,0.1,4.5,3.2c-0.1,3.3,0.8,6.2,2.5,8.9c3.2,5,7.6,8.6,13,11c14.3,5.9,28.8,6.1,43.5,2c1.6-0.4,3.2-0.9,4.5-2   c13.5-6.2,25.4-14.8,35.9-25.2c2.7-2.7,5.2-5.5,7-8.9c1.3-3.9,0.6-5.2-3-5.4c-1.9-0.1-3.5,0.4-5,1.4c-10.8,9.3-22.2,17.7-35.4,23.3   c-11.3,4.8-22.9,6.5-34.9,2.8c-3.5-1.1-6.8-2.8-9.5-5.4c-3.4-3.2-4.1-6.8-1.8-11.2c2.3-4.3,5.5-7.8,8.4-11.6   c5.8-6.2,11.9-12.1,18-18c12.2-10.3,24.6-20.1,40.2-24.8c10.3-2.5,20.6-2,31,0l0,0c5,0.8,10,1,15,2c4,1,8,2,12,3   c5.5,0.8,10.7,2.7,16,4l0,0c4,1.4,8.1,2.5,12,3.9c7.4,2.7,14.7,5.7,21.7,9.6c5.4,3,9.4,7.1,12.1,12.5c1.8,7.1,0.6,14-2,20.7   c-6.9,17-17.7,31.5-29.9,45.1c-1.6,2.6-4.1,4.5-6.1,6.8c-4.8,5.2-9.4,10.6-14.9,15.2c-3.3,2.3-5.5,5.8-9,8   c-20,18.7-42.1,34.4-65.7,48.2c-14.7,8.6-29.9,15.9-46.2,20.9c-7.2,2.4-14.6,3.5-22,5l0,0c-6.9,1.1-13.9,0.2-20.8,0.5   c-9.8-2.2-19.7-4.1-29.2-7.7c-4-1.6-7.9-3.3-11.9-4.8c-28.6-13.4-53.5-31.9-75.9-54C232.5,744.4,228.5,741.4,225.5,737.4z" />	<path class="st1" d="M561.6,151.5c-0.1,1.6-0.2,3.2-0.3,4.9c-0.9,5.5-2.2,10.8-3.9,16c-4.9,13.6-10.5,26.9-19.9,38.1   c-4.8,7.2-11.4,12.6-17.9,18c-11.4,9.1-24.1,15.7-38,20c-1.8,1.4-4.3,0.6-6.1,1.9l0,0c-4.4,1.8-9.4,2.3-13.9,2.6   c-9.9,0.8-20.1,1.4-30.1-0.6l0,0c-3.2-1.4-6.9-0.1-10-2l0,0c-1.9-1.3-4.3-0.6-6.3-1.6c-2.2-1.9-5.3-0.8-7.6-2.5   c-12.6-5.8-24.8-12.2-35.2-21.6c-10.1-9.1-18.3-19.7-24.7-31.6c-6.4-12.1-11-24.9-12.3-38.6c-1.6-9.4-1.5-18.8-0.2-28.2   c1.4-14.1,6-27.3,12-40c2.3-3.1,4-6.6,6.2-9.8l0,0c1.7-1.8,2.9-3.8,4.1-5.9c13.5-17.8,31.1-30,51.8-38c5.5-2.1,11-3.9,16.9-4.3   c2-0.9,4.2-0.8,6.3-0.8c12.1,0,24.1,0,36.2,0c1.6,0.1,3.2,0.2,4.6,1c2.7,0.6,5.1,2.2,7.9,2.1c3.5,0.9,6.7,2.7,10.1,3.8   c5.6,2.2,10.8,5,16,8c2,1.4,4.2,2.4,6,4c27.8,19.6,43.1,46.7,48,80C563.2,134.8,562.8,143.2,561.6,151.5z" />	<path class="st0" d="M376.5,642.4c-6.4,4.5-13.6,7.5-21,10c-4.9,1.2-9.5,3.3-14.6,3.4c-12.9,1.3-25.7,2.4-38.4-1.5   c-8.4-3.7-9.8-7.7-5.3-15.4c3.9-6.6,9.2-12,14.2-17.7c6.7-7.3,13.7-14.3,21-21c4-3.6,8-7.3,12.1-10.9c3.5-3.2,7.4-5.9,10.8-9.2   c12.4-10.3,23.4-22.5,38.2-29.8c5.8-2.2,11.9-3.7,17.9-5.1l0,0c20.1-3.2,40.1-2.6,60.2-0.6c10,1,20,2.6,29.9,4.2   c11.6,1.9,23,4.8,33.9,9.5c6.8,2.9,12.7,6.9,17.1,13c1.8,2.7,2.5,5.7,2.5,9c-0.1,5.5-0.1,11,0,16.5c0,2,0,4-1.4,5.7   c-0.8,7.8-0.8,7.9-7.6,5.9c-1.6-0.5-3-1.3-4.5-2c-2.4-1.6-5.7-1.1-8-3c-1.4-0.2-3,0.5-4.1-0.9c-4.6-1.3-9.4-2.3-13.9-4   c-0.3-0.1-0.6-0.1-0.9-0.1c-18.2-4.2-36.6-7-55.4-7c-7.5,0-14.8,0.7-21.7,3.9c-19,9.2-34.6,23-50,37   C383.4,635.3,380.5,639.5,376.5,642.4z" />	<path class="st0" d="M511.6,494.3c7.4,12,4.8,24.1,0.3,36.2c-0.8,2.2-2.8,2-4.7,1.6c-2.9-0.5-5.8-1.2-8.7-1.8c-5.9-1.8-12-1.8-18-3   l0,0c-18.1-2.2-36.2-4.1-54.4-2.3c-5.9,0.6-11.9,0.2-17.6,2.3c-15.5,2.6-28.7,9.9-40.5,20.1c-13.4,11.4-26.9,22.7-40.4,34   c-1.3,0.7-2.5,1.5-4.1,1.5c-8-0.3-16.1,0.8-24-1.4c-8.5-1.6-11.5-7-9.1-15c3.2-10.5,9.5-19.1,15.7-27.8   c8.8-12.4,17.3-25.2,27.8-36.3c7-7.4,14.5-14.1,23.7-18.8c4.5-2,8.9-4.3,13.9-5.1l0,0c7.8-1.7,15.7-2.4,23.7-2.5   c25.2-0.3,50.4,0.2,75.5,3.1c7.2,0.8,14.4,2.4,21.6,3.4C500.1,484.1,506.7,487.8,511.6,494.3z" />	<path class="st0" d="M663.5,967.3c1.6-33.5,0.6-66.9,0.7-100.4c0-4.5-0.5-9-0.9-13.4c-0.2-2.4,0.7-3.2,3.1-3.2   c5.3,0.1,10.7,0.3,16,0c3.8-0.2,5.7,0.7,5,4.9c-0.2,1.1,0,2.3,0,3.5c2.3,0.4,3.4-1.4,4.8-2.5c15-11.8,45.1-10.7,58.3,5.8   c7.8,9.9,9.9,21.4,9.6,33.3c-0.3,13.3-3.4,25.7-13.9,35.1c-14.2,12.7-40.2,13.4-55.1,1.5c-0.9-0.7-1.8-1.4-3.3-2.6   c-0.7,13,0.2,25.5,0.6,38C680.1,968.2,671.8,968.1,663.5,967.3z" />	<path class="st0" d="M644.2,902.6c0.5,12-0.6,23,1,33.9c0.3,2.3-0.7,2.9-2.7,2.9c-5.8-0.1-11.7-0.1-17.5,0   c-2.7,0.1-4.1-0.6-3.8-3.6c0.3-3.3-1-3.3-3.4-1.6c-11.5,7.9-24.2,8.5-37.4,6c-9.7-1.9-18.3-10.6-19.9-19.6   c-2.1-11.9,2.5-22.4,12.3-28.4c10.1-6.2,21.5-7.7,32.9-8.6c2.7-0.2,5.4,0.1,8-0.3c2.5-0.4,6.4,1.8,7.2-2.2   c0.9-4.3,0.4-8.8-3.4-11.9c-7.7-6.2-25.4-3-30.2,5.6c-1.4,2.4-2.8,2.9-5.2,2.4c-5.2-1-10.4-2.3-15.7-2.6c-4.5-0.3-3.8-2.1-2.6-5   c3.1-7.4,8.2-13,15.6-16.1c15.3-6.4,31-7,46.8-2.1c11.7,3.6,17.7,12,17.9,24.2C644.4,884.9,644.2,894.2,644.2,902.6z" />	<path class="st2" d="M109.4,885.2c1.6-19.5,18.1-35.6,38-37.1c5.4-0.4,10.8-0.5,16.3,0c20.1,1.5,35.5,17,38,38.1   c0.7,5.4,0.6,10.7,0,16.1c-2,22.7-20.3,39.5-43.2,40.1c-11.3,0.3-21.9-1.3-31.3-7.9c-10.5-7.3-16.4-17.4-17.8-30.1   C108.8,898.1,108.8,891.6,109.4,885.2z" />	<path class="st0" d="M483.3,926.4c0.1,2,0.1,4,0.2,6c0.3,7,0.3,7-7,7c-4.7,0-9.3-0.2-14,0.1c-3.3,0.2-4.3-0.9-4.1-4.2   c2-24.1,0.7-48.3,0.8-72.4c0-3.1-0.4-6.3-0.8-9.4c-0.2-2.1,0.5-3,2.7-3c6.2,0.1,12.3,0.1,18.5,0c2.5-0.1,3.1,1.2,3,3.4   c-0.1,2.6,0,5.2,0,8.3c2.4-0.5,3.6-2.3,5-3.4c12.1-9.6,25.6-11.6,39.9-6.7c11.5,3.9,17.5,14.4,17.6,29.6c0.1,16.3,0.2,32.6,0.1,49   c0,2.9,2.2,6.7,0,8.4c-2,1.5-5.7,0.5-8.7,0.6c-4,0.1-8-0.2-12,0.1c-3.7,0.3-4.6-1.1-4.2-4.5c1.7-15.9,0.7-31.9,0.9-47.9   c0.1-5.8-0.4-11.8-6.2-14.8c-6.1-3.2-12.3-2-18.1,1.5c-6,3.6-10.5,8.6-13.8,14.7C482.8,901,482.7,913.7,483.3,926.4z" />	<path class="st3" d="M287.5,860.4c10.8-9.9,23.6-12.6,37.8-10c8.9,1.6,18.7,9.2,20.3,19.9c2.7,13.7,0.8,27.5,1.4,41.2   c0.2,5-0.5,9.9,0.4,14.9c0.1,2,0.2,4,0.3,6c0.4,2.2,0.9,4.4-0.4,6.4c-7.2,1.2-14.4,0.4-21.7,0.5c-2,0-2.9-1.2-3-3.1   c-0.1-1.5-0.1-3-0.1-4.4c0.7-4.1,0.2-8.2,0.8-12.3c0-11-0.3-22,0.2-32.9c0.7-14.2-10.4-20.3-23.8-13.3c-6.4,3.3-11.3,8.6-14.4,15.2   c-0.6,12.7-0.6,25.4,0,38c0.1,2.7,0.2,5.3,0.3,8c1.3,3.6-0.3,4.7-3.8,4.5c-5.3-0.2-10.6-0.4-15.8,0c-4.3,0.3-5.6-1.4-5-5.3   c0.2-1.1-0.2-2.3,0.4-3.4c0-21.1,0.1-42.2,0-63.3c0-4.3-0.4-8.6-0.9-12.9c-0.3-2.9,0.7-3.8,3.5-3.7c6.5,0.2,13,0.1,19.4,0.1   c2.9,2.2,1,5.2,1.5,7.8C285.2,859.9,284.7,862,287.5,860.4z" />	<path class="st0" d="M401.2,942.3c-7.3-0.3-17.4-1.3-26.3-7.1c-6.7-4.4-10.8-10.6-12.7-18.4c-0.7-2.9,0.1-3.4,2.7-3.6   c4.1-0.3,8.3-0.8,12.4-1.4c4.9-0.8,9.6-2.2,11.5,4.8c0.8,3,4.1,4.4,7,5.3c6.2,1.8,12.5,2,18.7-0.2c3.5-1.2,6.1-3.2,6.2-7.5   c0.1-4.3-2.6-6.5-6.2-7.4c-7.7-2-15.5-3.7-23.3-5.5c-6.2-1.5-12.2-3.4-17.3-7.4c-12.9-10.1-11-31.7,4.1-39.7   c16-8.4,32.7-8.2,49-0.7c7.1,3.3,11.4,9.4,13.7,17c0.8,2.6,0.4,3.6-2.4,3.8c-5.5,0.5-10.9,1.2-16.3,1.9c-2.8,0.4-4.7,0-5.6-3.2   c-0.9-3.3-3.6-4.9-6.9-5.7c-5.3-1.3-10.6-1-15.7,1c-2.8,1.1-4.9,3.1-5,6.2c-0.1,3,2.1,4.7,4.7,5.9c6.9,3.1,14.4,3.9,21.6,5.8   c4.8,1.3,9.6,2.5,14.2,4.5c9,3.9,14.5,10.4,15.1,20.5c0.6,10.5-3.6,18.8-12.5,24.5C425,940.1,415.4,942.4,401.2,942.3z" />	<path class="st4" d="M97.7,912.2c1.4,1.7,0.6,3.2-0.1,5c-6.2,15.5-18.2,23.1-34.2,25c-10,1.2-19.9,0-29.1-4.7   c-12.5-6.3-19-17.2-21.5-30.5c-3.5-18.8-0.4-36.1,14.6-49.6c6.2-5.6,13.7-8.6,22.1-9.2c5.1-0.4,10.1-0.5,15.2,0   c15.1,1.8,25.5,10,32,23.5c1.9,3.9,0.7,5.9-3.5,6.4c-2.1,0.3-4.3,0.7-6.4,1.1c-3.1,0.6-6.2,2-9.3,1.8c-3.7-0.2-3.2-4.7-5.1-7.1   c-4.9-6.1-11-8.3-18.4-7.3c-7.7,1.1-13.2,5.8-15.7,12.9c-3.9,11-4,22.1,1.4,32.8c2.2,4.3,5.4,7.8,9.9,10c5.3,1.9,10.6,2.7,15.9,0   c4.6-2.8,9.2-5.7,10.3-11.6c0.3-1.8,1.5-2.1,3.3-1.7c4,0.8,8.1,1.2,12.2,1.8C93.2,912,95.8,910.7,97.7,912.2z" />	<path class="st5" d="M284.4,220.4c-4.7-1.4-8-3.9-11.3-6.2c-19.1-13.4-38.9-25.8-58.9-37.9c-14.8-8.9-29.6-17.7-44.6-26.3   c-20.5-11.8-41.3-23.2-61.8-35.1c-8.9-5.1-17.9-10.2-23.2-19.8c-1.8-3.2-1.3-6.5-0.8-9.7c0.4-2.1,2.3-3,4.6-3.2   c5.5-0.5,10,1.8,14.3,4.8c20.8,14.5,41.7,28.9,62.3,43.7c22.9,16.4,45.6,33.2,68.3,49.9c15.8,11.6,31.5,23.2,47.3,34.8   C282,216.6,283.7,217.5,284.4,220.4z" />	<path class="st3" d="M217.4,929.3c0-21.1,0.1-42.2,0.1-63.3c0-3.8,0-7.6-0.8-11.4c-0.6-2.8,0-4.4,3.4-4.3c6.3,0.2,12.6,0.1,18.9,0   c2.3,0,3.7,0.2,3.5,3.2c-2,24.5-0.6,49.1-0.8,73.7c0,1.3,0,2.7,0,4c0.6,1.1,0.2,2.3,0.4,3.4c0.5,3.2-0.7,4.4-4.1,4.3   c-5.6-0.3-11.2-0.2-16.8,0c-3.3,0.1-4.6-0.9-4.1-4.2C217.3,932.9,216.8,931.1,217.4,929.3z" />	<path class="st6" d="M201.7,215.2c-4.2,1-8.2-0.4-12.2-1.3c-22.2-4.5-44.5-8.4-67-11.6c-11-1.6-21.8-3.8-32.8-5.8   c-3.5-0.6-6.6-2.3-9.3-4.6c-1.7-1.4-2.5-3.3-1.8-5.3c0.7-2.1,2.3-3.8,4.6-4c2.8-0.3,5.6-0.4,8.4,0.5c26.6,8.8,53.7,15.8,80.9,22.8   c8.8,2.3,17.6,4.4,26.3,6.7C200.3,212.9,201.5,213.4,201.7,215.2z" />	<path class="st6" d="M209.4,56.5c0.1-3.2-0.5-5.8,2.5-7.2c3.1-1.4,5.1,0.3,7.1,2.2c5.3,4.9,7.6,11.7,10.9,17.7   c7.6,13.7,15.1,27.6,22.9,41.3c6.8,11.9,13.8,23.8,20.7,35.6c0.8,1.3,1.9,3,0.2,3.9c-1.5,0.9-2-1.2-2.7-2.2   c-11.3-16-22.5-31.9-33.7-47.9c-8.1-11.5-17-22.5-24.5-34.4C210.9,62.4,209,59.4,209.4,56.5z" />	<path class="st7" d="M235.7,838.1c-5.4,0-10.8,0-16.2,0c-1.5-0.9-2.5-2-2.5-3.9c0.1-4.5,0.1-8.9,0-13.4c0-2.2,0.8-2.9,2.9-2.9   c6.3,0.1,12.6,0.1,18.9,0c2.8-0.1,3.3,1.2,3.2,3.6c-0.1,3.1,0,6.3,0,9.4C242,837.3,242,837.3,235.7,838.1z" />	<path class="st8" d="M493.5,483.3c-13.6-2.1-27.2-3.9-40.9-5.2c-19.9-2-39.9-1.7-59.8-1.6c-7.1,0-14.2,1.2-21.3,1.8   c4.3-2.5,9.2-2.8,13.9-2.8c17.8-0.2,35.7-0.7,53.5,0.1c18,0.8,36.1,2.6,53.9,6.2c0.3,0.1,0.5,0.4,0.8,0.6c0.3,0.2,0.5,0.4,0.3,0.7   C493.7,483.2,493.6,483.3,493.5,483.3z" />	<path class="st9" d="M502.5,549.5c-11.2-1.1-22.2-3.9-33.5-4.3c-11.9-0.5-23.7-2.5-35.7-1c-7.2,0.9-14.5,0.8-21.8,1.2   c6.7-2.8,14-2.5,20.9-2.7c23.6-1,46.9,1.4,70.1,5.8c0.3,0.2,0.5,0.5,0.3,0.7C502.7,549.4,502.6,549.5,502.5,549.5z" />	<path class="st10" d="M437.4,595.3c5.3-4.2,11.8-4.4,17.9-4.7c19.1-0.7,37.9,2.4,56.5,6.4c0.9,0.2,1.8,0.8,2.6,1.3   c-7.2-0.1-14-2.4-21-3.5c-14.8-2.3-29.7-3.1-44.6-2.4C444.9,592.7,441.5,595.4,437.4,595.3z" />	<path class="st11" d="M379.5,459.4c3.9-1.5,8-1.8,12.1-1.8c16.8-0.1,33.6-0.2,50.5,0.1c6.1,0.1,12.2,0.8,18.3,1.7   c5.9,0.8,11.1-0.1,15.3-4.7c-1.8,4.3-4.8,6.3-9.7,5.9c-21.5-1.6-43-2.3-64.6-2.1C394,458.4,386.8,460.1,379.5,459.4z" />	<path class="st12" d="M408.5,527.4c4.8-3.4,10.6-2,15.9-2.8c18.3-2.7,36.6,0,54.9,2c0.4,0,0.8,0.5,1.2,0.8   c-14.6-0.4-29.1-2.4-43.7-2.1C427.2,525.4,417.9,527,408.5,527.4z" />	<path class="st13" d="M368.5,681.4c-2.8-2.2-3-5.3-3.1-8.5c-0.1-2.9-1.3-3.8-4.1-2.9c-15.2,5-31,5.1-46.7,4.3   c-6.9-0.4-13.8-1.4-20-4.9c11.6,2.5,23.3,4.6,35.3,4.1c10.5-0.4,20.7-1.9,30.8-4.8c4.1-1.2,6.1-0.5,5.9,4   C366.2,675.9,368.2,678.4,368.5,681.4z" />	<path class="st14" d="M321.3,457.3c-0.2,0.4-0.3,1-0.6,1.3c-1.6,1.3-2.7,4.2-5.1,3.4c-2.3-0.8-1.1-3.5-1.2-5.4   c-0.9-16.9-3.2-33.6-6.5-50.2c-0.3-1.3-0.3-2.6-0.4-3.9c3.3,7.3,3.6,15.3,5,23.1c2.1,11.4,2.8,22.9,3.3,34.5   C318.5,460.1,319.2,457.4,321.3,457.3z" />	<path class="st15" d="M431.5,252.5c14.7,0.1,29.4,0.6,43.9-2c-0.3,0.5-0.5,1.5-0.9,1.6c-13.9,2.2-27.8,3.9-41.9,1.3   C432.2,253.2,431.9,252.8,431.5,252.5z" />	<path class="st16" d="M235.7,838.1c4.9-0.7,6.1-3.5,6-8.2c-0.4-11.5-0.1-11.5-11.5-11.5c-12.6,0-12.5,0-12.6,12.4   c0,2.7,0.3,5.2,2,7.3c-2.2,0.7-3.1-0.2-3.1-2.4c0-5.1,0-10.3,0-15.4c0-2,0.8-3.1,3-3.1c6.8,0,13.6,0.1,20.4,0   c2.5,0,3.1,1.3,3.1,3.5c0,3.6,0,7.3,0,10.9C242.8,838.7,242.8,838.7,235.7,838.1z" />	<path class="st17" d="M181.5,602.4c0.9,4.5-1.5,8.4-2,12.7c-2.2,16-0.8,31.8,3.1,47.3c0.1,0.3,0,0.7-0.1,1c-3.2-2-2.2-5.5-2.7-8.2   C176.5,637.5,175.2,619.8,181.5,602.4z" />	<path class="st18" d="M429.5,692.4c-3.3,3.6-8.1,4.2-12.2,4.6c-10.4,1.1-20.9,1.4-31.1-2c-1.7-0.5-3.6-0.9-4.7-2.6   c7.3,1.3,14.2,4,21.8,4.1C412.3,696.6,420.9,695.1,429.5,692.4z" />	<path class="st19" d="M220.5,430.5c2.9,10.4,3.9,21,2.5,31.7c-0.6,4.4,1.2,9.4-2.4,13.3c0.3-3.6,0.5-7.2,1-10.8   C223.2,453.2,220.8,441.9,220.5,430.5z" />	<path class="st20" d="M347.4,926.4c-1.4-1.6-0.8-3.5-0.8-5.3c-0.1-12.5,0-25-0.1-37.5c0-4.5-0.6-8.9-0.9-13.4   c1.6,2.1,1.8,4.6,1.8,7C347.5,893.7,347.4,910,347.4,926.4z" />	<path class="st21" d="M311.6,802.3c4.3,0.1,7.8,2.6,11.6,4.1c9.3,3.6,19,5.4,28.6,7.8c-0.4,0.6-0.8,0.7-1.4,0.3   C336.6,812.9,323.6,809.1,311.6,802.3z" />	<path class="st22" d="M347.5,938.1c0-1.9,0.1-3.9,0.1-5.8c2.2,7,1.5,8-5.3,8c-5.6,0-11.3-0.1-16.9,0.1c-3,0.1-4.2-0.9-4.1-4   c0.2-5.7,0.7-11.4,1.9-17.1c0,3.9,0,7.9,0,11.8c-0.5,0.9-0.2,1.9-0.4,2.9c-0.7,4.1,1.1,5.2,4.9,4.8   C334.4,938.3,341,939.7,347.5,938.1z" />	<path class="st23" d="M335.3,126.4c0.1,9.4,0.1,18.8,0.2,28.2c-1.6-1.3-1.9-3-1.9-4.9c0-6.7,0-13.5,0-20.2   C333.6,128.1,333.5,126.7,335.3,126.4z" />	<path class="st24" d="M473.5,28.5c-1.3,0-2.6-0.1-3.9-0.1c-12.3-1-24.7-0.1-37-0.5c-1.7,0-3.6,0.7-5.2-0.7c1.6-1.3,3.5-0.8,5.3-0.8   c11.5,0,23,0,34.5,0C469.4,26.6,471.8,26.4,473.5,28.5z" />	<path class="st25" d="M502.5,549.5c0-0.3,0-0.7,0-1c9.7,1.5,19.2,3.8,28.3,7.3c1.7,0.6,3.6,1,4.6,2.7c-8.2-1.8-15.9-5.6-24.3-7   C508.2,551,505.3,550.1,502.5,549.5z" />	<path class="st26" d="M561.6,151.5c0-8.4,0-16.7,0-25.1c0.5,0.3,1.5,0.7,1.5,1C563.1,135.5,565.1,143.7,561.6,151.5z" />	<path class="st27" d="M519.6,228.6c1.7-4,5.5-5.9,8.6-8.3c3.6-2.8,5-7.7,9.4-9.7C533.5,218.5,527.5,224.5,519.6,228.6z" />	<path class="st28" d="M302.5,654.4c12.9,2.6,25.9,2.7,39,1c0.3,0.2,0.4,0.4,0.3,0.6c-0.1,0.2-0.2,0.3-0.3,0.3   c-12.2,2.1-24.4,1.9-36.5-0.3C304.1,655.8,303.3,654.9,302.5,654.4z" />	<path class="st29" d="M289.4,667.5c-12.7-4.7-18.1-15.6-12.9-26.1c-0.2,3-0.6,5.9-0.4,8.9c0.4,6.5,4.6,10.7,9.6,14.2   C287,665.4,289,665.5,289.4,667.5z" />	<path class="st30" d="M427.3,27.3c12.2,0.1,24.3,0.1,36.5,0.3c1.9,0,4-0.6,5.8,0.9c-14.4,0-28.8,0-43.2-0.1   C426.7,28,427,27.7,427.3,27.3z" />	<path class="st31" d="M217.4,929.3c0.6,9.1,0.6,9.1,9.9,9.1c2.3,0,4.6,0,7,0c7-0.1,7-0.1,7.4-7.1c2.3,7.4,1.8,8.2-5.4,8.2   c-4.8,0-9.7-0.3-14.4,0.2c-5,0.5-6.1-1.7-5.4-6.1C216.7,932.1,216.3,930.6,217.4,929.3z" />	<path class="st32" d="M332.5,600.4c-6.5,7.5-13.6,14.4-21,21C317.4,613.3,324.3,606.2,332.5,600.4z" />	<path class="st19" d="M220.5,475.4c-0.2,11.8-3.7,23-6.9,34.2c-0.5-0.4-0.6-0.9-0.2-1.4C215.8,497.3,218.2,486.4,220.5,475.4z" />	<path class="st33" d="M621.5,275.5c-9.3,0-18.7-0.5-28,1C602.7,273.3,612,272.2,621.5,275.5z" />	<path class="st34" d="M483.3,926.4c-1.6-2.4-0.8-5.1-0.8-7.7c-0.1-8.6-0.1-17.1,0-25.7c0-1.6-0.5-3.3,0.8-4.7   C483.3,901,483.3,913.7,483.3,926.4z" />	<path class="st35" d="M285.3,926.4c-1.6-2.4-0.8-5.1-0.8-7.7c-0.1-8.6-0.1-17.1-0.1-25.7c0-1.6-0.5-3.3,0.9-4.7   C285.3,901,285.3,913.7,285.3,926.4z" />	<path class="st36" d="M261.4,930.2c0.5,8.1,0.5,8.1,8.8,8.2c3.6,0,7.3-0.2,10.9,0.1c3.1,0.2,4.7-0.8,4.5-4.1   c1.8,3.9,0.5,5.4-3.7,5.2c-5.1-0.2-10.2-0.1-15.3-0.1c-6.6,0-6.9-0.3-6-7C260.7,931.7,261.1,931,261.4,930.2z" />	<path class="st37" d="M553.6,602.5c1.2-10.4,2-20.8-1.1-31.1c2,1.2,2.8,3.2,2.8,5.4c0.1,7.6,0,15.1,0,22.7   C555.4,600.9,555.3,602.2,553.6,602.5z" />	<path class="st38" d="M216.4,284.6c-10.8-2.2-21.4-1.5-31.9,1.7c1.5-2.5,4.4-2.2,6.6-2.8c7.4-2,15-1.3,22.5-0.5   C214.6,283.2,215.9,283.3,216.4,284.6z" />	<path class="st39" d="M213.4,508.3c0.1,0.5,0.1,0.9,0.2,1.4c-1.8,8.6-3.7,17.1-8,24.8C207.4,525.5,210.6,516.9,213.4,508.3z" />	<path class="st40" d="M480.5,609.4c-10.3-0.8-20.7-1.7-31,0C459.8,606,470.1,606.6,480.5,609.4z" />	<path class="st41" d="M409.3,634.2c-5.4,6.6-11.4,12.6-18,18C396.3,645.2,402.3,639.3,409.3,634.2z" />	<path class="st42" d="M299.5,581.5c6.4,0.1,12.8,1.4,19.3,1c3-0.2,5.9-0.2,8.8-1c-0.6,0.6-1.2,1.6-1.7,1.6   C317,583.2,308.1,585.1,299.5,581.5z" />	<path class="st43" d="M493.5,483.3c0-0.3,0-0.7,0-1c7.6,1.6,14.4,4.5,18.1,12C506.3,489.5,500.8,484.8,493.5,483.3z" />	<path class="st44" d="M373.5,814.4c7.2-2.3,14.6-3.8,22-5C388.6,812.9,381.1,814.1,373.5,814.4z" />	<path class="st45" d="M168.6,312.3c2.2,7.2,7.7,12.6,10.9,19.1c-5.2-4.6-8.9-10.3-11.1-16.9C168,313.8,167.9,313,168.6,312.3z" />	<path class="st46" d="M273.5,582.4c-3.7-6.5-1.9-12.8,1-19C273.1,569.7,273.4,576,273.5,582.4z" />	<path class="st47" d="M557.4,172.4c0.3-5.6,1.8-10.9,3.9-16C561.9,162.2,560.6,167.6,557.4,172.4z" />	<path class="st48" d="M567.3,665.2c1.7-6.8,2.8-13.7,2-20.7C572.3,651.8,571,658.6,567.3,665.2z" />	<path class="st49" d="M663.5,967.3c8.3,0,16.6,0,24.8,0c-5.2,2.2-10.6,0.7-15.9,0.9C669.5,968.3,666.3,969.5,663.5,967.3z" />	<path class="st9" d="M411.5,545.4c-5.8,2.2-11.7,4.2-17.9,5.1C399,546.9,405.1,545.7,411.5,545.4z" />	<path class="st50" d="M216.6,410.3c2.6,6.5,3.8,13.2,3.9,20.1c-2-5.8-2.9-11.9-4-18C215.9,411.7,216,411,216.6,410.3z" />	<path class="st51" d="M302.6,606.5c0.7-2.6,4.8-3.6,4.3-6.1c-0.6-2.5-4.6,0.2-6.4-2c0.2,0,0.3-0.1,0.5-0.1c3,0.2,8.3-1.2,8.5,0.9   C309.9,602.4,305.9,604.9,302.6,606.5z" />	<path class="st52" d="M65.5,922.2c-0.1,0.5-0.2,1.3-0.5,1.3c-5.2,0.8-10.6,2.4-15.4-1.3C54.9,923,60.2,923.5,65.5,922.2z" />	<path class="st44" d="M350.3,814.5c0.5-0.1,0.9-0.2,1.4-0.3c7.3,0.1,14.5,0.1,21.7,0.2C365.8,816.2,358.1,815.9,350.3,814.5z" />	<path class="st46" d="M274.5,563.4c0.9-6,3.4-11.2,6.9-16C279.8,553,277.2,558.2,274.5,563.4z" />	<path class="st53" d="M320.4,492.3c2.7-4.7,6.2-8.4,11-11C328.2,485.5,324.7,489.3,320.4,492.3z" />	<path class="st54" d="M376.5,642.4c3.2-3.8,6.3-7.8,10.9-10.1C384.3,636.3,381.2,640.2,376.5,642.4z" />	<path class="st55" d="M225.5,737.4c3.9,3.1,7.7,6.4,10.2,10.9C231.7,745.2,227.7,742.1,225.5,737.4z" />	<path class="st56" d="M523.4,618.5c-5.6-0.4-10.8-2.2-16-4C513.2,614,518.3,616.2,523.4,618.5z" />	<path class="st12" d="M480.5,527.4c6.2,0,12.2,0.7,18,3C492.4,529.9,486.3,529.5,480.5,527.4z" />	<path class="st23" d="M353.5,76.5c-1.4,3.7-2.5,7.5-6.2,9.8C348,82.2,350.4,79.2,353.5,76.5z" />	<path class="st57" d="M168.6,312.3c0,0.8-0.1,1.5-0.1,2.3c-1.9-5.5-2.4-11,1-16.1C169,303,168.1,307.6,168.6,312.3z" />	<path class="st29" d="M276.5,641.4c0.9-5.1,3.3-9.4,7.1-12.9C281.6,633,279.4,637.4,276.5,641.4z" />	<path class="st58" d="M299.5,598.3c-5.1,0.2-9.9-0.5-14-4C290.4,595.2,295,596.6,299.5,598.3z" />	<path class="st59" d="M371.4,478.4c-4.6,1.9-9,4.2-13.9,5.1C361.6,480.4,366,478,371.4,478.4z" />	<path class="st60" d="M515.4,598.5c4.9,0.6,9.6,1.6,13.9,4C524.4,602.4,519.7,601.2,515.4,598.5z" />	<path class="st61" d="M109.4,885.2c0,6.4,0,12.8,0,19.2C107.7,898.1,107.7,891.6,109.4,885.2z" />	<path class="st62" d="M287.5,860.4c-0.3,1.6-1.2,2.4-2.8,1.8c-1.3-0.5-0.5-1.6-0.5-2.5c0-3.1,1-6.2-0.7-9.2c3.6,0.4,1.5,3.2,2,4.9   C286.1,857.1,284,859.8,287.5,860.4z" />	<path class="st63" d="M355.4,580.3c-2.8,4-6.6,6.9-10.8,9.2C347.4,585.5,351,582.5,355.4,580.3z" />	<path class="st64" d="M464.4,654.3c2-3,5.1-2.6,7.5-1.5c2.5,1.1,3.9,3.4,0.4,5.5C472.1,652.9,471.5,652.6,464.4,654.3z" />	<path class="st65" d="M341.5,656.3c0-0.3,0-0.6,0-0.9c4.7-1,9.3-2,14-3C351.1,654.7,346.5,656.3,341.5,656.3z" />	<path class="st66" d="M491.5,34.5c-4,0.3-7.1-1.7-10.1-3.8C485.2,30.7,488.8,31.4,491.5,34.5z" />	<path class="st67" d="M207.4,382.5c2.4,4,4.4,8.1,4.1,12.9C209.6,391.3,207.9,387.1,207.4,382.5z" />	<path class="st40" d="M495.5,611.4c-5.1,0.3-10.1-0.9-15-2C485.6,609.1,490.6,609.6,495.5,611.4z" />	<path class="st68" d="M475.6,454.6c2.3-3.4,4.8-6.5,8.8-8.2C482,449.6,479.4,452.8,475.6,454.6z" />	<path class="st69" d="M163.7,848.2c-5.4,0-10.8,0-16.3,0C152.8,846.6,158.2,846.6,163.7,848.2z" />	<path class="st15" d="M421.5,250.5c3.5-0.1,6.9,0.3,10,2C428.2,251.9,424.2,254.4,421.5,250.5z" />	<path class="st70" d="M507.4,740.3c2.7-3,5-6.5,9-8C513.9,735.5,511.6,739,507.4,740.3z" />	<path class="st71" d="M201.7,902.4c0-5.4,0-10.7,0-16.1C203.2,891.7,203.2,897,201.7,902.4z" />	<path class="st72" d="M535.5,622.4c-4.3-0.4-8.3-1.7-12-3.9C527.8,618.7,531.8,620,535.5,622.4z" />	<path class="st73" d="M64.6,848.2c-5.1,0-10.1,0-15.2,0C54.5,846.5,59.6,846.8,64.6,848.2z" />	<path class="st74" d="M216.6,410.3c0,0.7-0.1,1.5-0.1,2.2c-1.7-3.8-2.6-7.8-3.1-11.9C215.8,403.4,215.8,407,216.6,410.3z" />	<path class="st75" d="M307.5,401.5c-2.3-3.3-2.2-7.3-3-11C307.2,393.7,307,397.6,307.5,401.5z" />	<path class="st76" d="M513.5,46.4c-2.5-0.6-5-1.2-6-4C510.6,42.1,512.5,43.7,513.5,46.4z" />	<path class="st77" d="M407.6,246.3c2.9-0.1,5.7,0,8,2.1c-0.7,0.7-1.5,0.6-2.4,0.2C411.2,248.4,409,248.5,407.6,246.3z" />	<path class="st78" d="M357.6,70.6c0.3,3.1-1.5,4.8-4.1,5.9C354,73.9,355.4,72,357.6,70.6z" />	<path class="st79" d="M531.3,717.2c1.2-3,3.7-4.9,6.1-6.8C536.6,713.7,534.1,715.6,531.3,717.2z" />	<path class="st15" d="M413.3,248.6c0.8-0.1,1.6-0.1,2.4-0.2c2.2,0.1,4.3,0.3,5.8,2.1C418.5,250.8,415.7,250.6,413.3,248.6z" />	<path class="st80" d="M97.7,912.2c-2.2-0.3-4.8,1.2-6.3-1.6C93.5,911,96.2,908.9,97.7,912.2z" />	<path class="st81" d="M475.4,250.4c1.7-1.8,3.8-2.1,6.1-1.9C480.3,251.7,477.6,250.1,475.4,250.4z" />	<path class="st82" d="M203.5,540.4c-0.5,2.8-0.1,6-3.1,7.9C201.5,545.7,201.2,542.5,203.5,540.4z" />	<path class="st83" d="M584.5,278.5c-2.2,2.4-5.3,2.1-8,2.9C578.5,278.7,581.7,279.1,584.5,278.5z" />	<path class="st84" d="M272.4,322.6c-2-1.7-4.3-3.2-4.9-6C269.6,318.1,272.1,319.5,272.4,322.6z" />	<path class="st60" d="M533.5,603.4c2.7,0.9,5.9,0.6,8,3C538.6,605.9,535.5,606.1,533.5,603.4z" />	<path class="st85" d="M481.4,68.6c0.7,0.7,1.4,1.3,2,2c1.7,3.9,1.6,7.9,0.1,11.9l0.1,0.1c-1.1,2.8-2.4,5.7,1,8   c5.3,3.8,10.6,7.5,13.1,13.9c4,8.7,3.9,17.3-0.3,25.8c-0.6,1.4-1.3,2.7-1.9,4.1c-1.2,2.1-2.2,4.3-3.9,6.1c-0.7,0.7-1.3,1.3-2,2   c-1.4,2-1.4,4.1,0,6.1c1.1,2.3,2.8,4.3,3.1,6.9c3.6,5.5,1.9,11.3,1.1,17c-0.7,2-2.3,3.6-2.2,5.9c-1.4,2-2.2,4.3-3.8,6.2   c-1.6,2.4-3.5,4.5-6.1,6c-1.9,1.5-3.9,2.8-6.2,3.8l0,0c-7.6,2.3-15.4,1.6-23,0.8c-2.1-0.2-3.5-0.3-4.7,1.5l0,0   c-1.7,2-0.5,4.9-2.1,6.9c-2.9,8.4-8.2,9.3-15.9,2.9c-1.5-2.6-1.7-5.3-0.1-7.9l0,0c1.3-1.8,0.4-4.3,2-6l0.1,0.1   c1.4-2.8-0.1-4.2-2.5-4.9c-1.2-0.4-2.6,0-3.6-1.1c-5.6-1.8-4.5,3.6-5.7,5.9c-1.4,2.7-1.7,6-4.3,8c-3.3,1.8-6.6,2.2-9.9,0   c-0.7-0.7-1.3-1.4-2-2c-2-3.6-0.9-7.3,0-10.9c0.5-2.3,2.6-4.2,1.8-6.8c-1.9-2.4-5-2-7.5-3c-3-1.2-5.6-2.6-7.1-5.5   c-0.9-4.4,0.3-7.8,4.2-10.2c2.9-0.4,5.8-1,8.6,0.6l0,0c2.7,1,5.3,1.9,8,0c3.3-10.7,6.6-21.4,10-32.1c1.8-1.5,0.7-4.2,2.2-5.8l0,0   c1.2-4.1,2-8.3,3.8-12.1c0.5-2.7,2.3-5,2.3-7.8c1.4-1.8,0.5-4.3,2-6l0,0c2.4-6.5,2.1-7.4-4.3-9.4c-3-0.9-6-1.7-7.8-4.6l0,0   c-1.4-2.7-1.4-5.4,0-8.1c0.7-0.7,1.3-1.4,2-2c4.9-2,9.5-0.7,14.1,1c2.3,0.4,3.7-0.4,4.1-2.8c1.4-1.8,0.7-4.2,1.8-6.1   c0.9-2.3,2-4.5,3.9-6.1c4.5-2.1,8.6-1.6,11.9,2.3l0-0.1c1.7,3.3,1.3,6.6,0.2,9.9l-0.2-0.1c-1.5,1.7-0.5,4.2-2,5.9   c-0.8,0.5-0.9,1.3-0.8,2.1c1.1,1.1,2.5,1.4,3.8,2c5.4,2.5,7.4,1.6,9.1-3.9c0.8-1.2,1.1-2.6,1-4C471.4,67.8,475.2,66.1,481.4,68.6z" />	<path class="st86" d="M447.6,196.6c-0.3-2.2,0.9-3.5,2.8-2.9c8.3,2.4,16.6,0.9,24.9,0.7c-1,1.9-2.9,1.9-4.7,2   c-6.3,0.3-12.6,0.6-18.8-0.4C450.2,195.7,449,196.6,447.6,196.6z" />	<path class="st87" d="M497.2,130.3c2.8-8.6,3-17.2,0.3-25.8c4.1,5.1,4.9,11.1,3.2,17C499.9,124.3,501.4,128.6,497.2,130.3z" />	<path class="st88" d="M419.5,84.5c3.2,2.4,6.9,3.6,10.6,4.9c5,1.8,5.4,4.9,1.5,9.2c2.1-6.7-2.4-8.3-7.3-9.6   C422,88.3,419.2,88,419.5,84.5z" />	<path class="st89" d="M481.4,68.6c-5.9-1.6-9.7,1.4-12.9,5.9c-0.3-3,1.8-6.6,5.5-7.5C476.3,66.4,479.7,64.6,481.4,68.6z" />	<path class="st90" d="M467.5,78.5c0.2,5.9-1.6,7.5-7.1,5.7c-2.1-0.7-4.9-1-5.8-3.8c1,0.2,2.1,0.1,2.9,0.6   C461.6,83.5,465.1,83.3,467.5,78.5z" />	<path class="st91" d="M391.6,172.4c3,3.5,7.1,4.9,11.3,6c1.3,0.3,2.7,0.3,2.5,2.3c-3.3-0.9-6.7-1.7-9.9-2.8   c-1.6-0.6-3.5-1.2-3.9-3.3C390.9,173.8,390.9,173.1,391.6,172.4z" />	<path class="st92" d="M493.5,172.5c-0.6-5.7,1.1-11.5-1.1-17c4.5,2.3,2.5,6.6,2.9,10.1C495.6,168,495.2,170.5,493.5,172.5z" />	<path class="st93" d="M435.5,75.4c-4.7-0.9-9.3-1.3-14.1-1c2.4-4,6-1.9,9.1-1.6C432.2,73,434.2,73.9,435.5,75.4z" />	<path class="st94" d="M391.6,172.4c0,0.7-0.1,1.4-0.1,2.1c-3.6-4.4-2.9-8.6,1.8-12.2c0.5-0.3,1-0.3,1.4,0.2   C391.5,165.2,391,168.6,391.6,172.4z" />	<path class="st95" d="M483.5,82.5c0-4-0.1-7.9-0.1-11.9C486.5,73.2,486.5,79.4,483.5,82.5z" />	<path class="st96" d="M427.4,112.4c-0.1,4.4-1.4,8.5-3.8,12.1C422.9,119.9,424.4,115.9,427.4,112.4z" />	<path class="st97" d="M457.3,62.7c-3.6-2.6-7.7-3-11.9-2.3C449.5,56.8,454.2,57.7,457.3,62.7z" />	<path class="st98" d="M425.4,186.6c7.1-0.2,8.6,1.3,6.1,6c-0.1-2.2-1.1-3.7-3.4-4.1C427,188.3,425.5,188.4,425.4,186.6z" />	<path class="st99" d="M394.7,162.6c-0.5-0.1-0.9-0.1-1.4-0.2c3.2-2.8,7.6-2.7,10.2,0.1C400.5,162.5,397.6,162.6,394.7,162.6z" />	<path class="st100" d="M403.5,187.5c0,3.6,0,7.3,0,10.9C399.2,194.8,401.7,191.1,403.5,187.5z" />	<path class="st101" d="M405.5,200.5c3.3,1.1,6.6,0.3,9.9,0C412.6,203.6,408.2,203.6,405.5,200.5z" />	<path class="st102" d="M419.4,76.5c0,2.7,0,5.4,0,8.1C416.3,81.8,416.2,79.2,419.4,76.5z" />	<path class="st103" d="M457.5,72.5c-0.1-3.3-0.1-6.6-0.2-9.9C460.6,65.9,460.2,69.2,457.5,72.5z" />	<path class="st104" d="M484.5,90.5c-3.9-1.2-4.2-3.4-1-8C483.7,85.2,482.8,88,484.5,90.5z" />	<path class="st105" d="M429.5,198.5c0,2.6,0,5.3,0.1,7.9C426.7,203.8,426,201.2,429.5,198.5z" />	<path class="st99" d="M411.5,162.5c-2.6,4.7-5.3,1.6-8,0C406.1,162.5,408.8,162.5,411.5,162.5z" />	<path class="st106" d="M475.4,194.3c1.2-2.6,3.7-3.2,6.2-3.8C480.5,193.4,478.5,194.9,475.4,194.3z" />	<path class="st107" d="M489.4,148.6c-2.7-2-3.6-4.1,0-6.1C489.4,144.5,489.4,146.5,489.4,148.6z" />	<path class="st108" d="M487.6,184.6c0.3-2.6,1.4-4.8,3.8-6.2C491.3,181.2,490.1,183.3,487.6,184.6z" />	<path class="st86" d="M445.5,203.5c-0.1-2.5-0.5-5.2,2.1-6.9C447.4,199.1,448.1,201.8,445.5,203.5z" />	<path class="st88" d="M431.6,98.6c-0.4,2.1,1.1,4.8-2,6C429.3,102.3,429.5,100.1,431.6,98.6z" />	<path class="st109" d="M491.4,140.4c0.6-2.5,1.6-4.7,3.9-6.1C495.4,137.3,493.7,139.1,491.4,140.4z" />	<path class="st110" d="M455.4,78.3c0.5-2-1.2-4.8,2-5.9C457.5,74.7,457.5,76.9,455.4,78.3z" />	<path class="st111" d="M441.5,66.5c-0.2,2.2,1.2,4.8-1.8,6.1C439.2,70.3,439.7,68.2,441.5,66.5z" />	<path class="st105" d="M431.5,192.5c0.2,2.3,0,4.5-2,6C429.9,196.4,428,193.6,431.5,192.5z" />	<path class="st96" d="M423.6,124.6c-0.6,2,1.2,4.9-2.2,5.8C421.4,128.2,421.5,126,423.6,124.6z" />	<path class="st112" d="M688.3,894.5c-0.1-20.4,19-33.1,36.2-24.1c4.2,2.2,7.1,5.6,8.8,9.8c3.8,9.5,3.7,19.2-0.3,28.6   c-3.6,8.3-10.4,12.3-19.3,12.4c-9.7,0.2-17-4-21.8-12.4C689.3,904.5,688.3,899.6,688.3,894.5z" />	<path class="st113" d="M612.2,899.4c9.7-0.2,9.7-0.2,8.4,7.8c-1.2,7.9-8.6,14.6-18.1,16c-3.2,0.5-6.4,1.2-9.8,0.5   c-4.7-1-7.9-3-8.7-8.1c-0.7-4.6,1.5-9,6.2-11.4C597.7,900.5,605.8,900,612.2,899.4z" />	<path class="st112" d="M177.7,902.4c-2.3,20.4-22.4,25.8-35.4,16.8c-5.9-4-8.3-10.3-9.2-17c-1.4-10.3-1.1-20.3,6.1-28.8   c5.5-6.4,12.8-8.3,20.7-6.8c7.6,1.4,13.3,5.8,15.8,13.4c0.9,2.7,2.1,5.3,2,8.2C178.2,893,178.3,897.7,177.7,902.4z" />	<path class="st114" d="M177.7,902.4c0-4.7,0-9.4,0-14.1C179.2,893,179.3,897.7,177.7,902.4z" />	<path class="st115" d="M347.5,938.1c-1.6,2.3-3.9,1.1-5.9,1.2c-4.1,0.2-8.2,0.1-12.3,0c-7.6-0.1-8-0.6-6-8.2   c0.4,7.2,0.4,7.2,7.8,7.2C336.6,938.4,342.1,938.2,347.5,938.1z" />	<path class="st1" d="M440.5,142.4c4.3,1.3,8.7,2.7,13,4c1.6,1.9,4.4,0.2,6.1,1.9l0,0c1.7,1.4,4.3,0.4,6,2   c15.4,3.8,14.7,18.5,7.9,26c-6.2,5-13.1,3.6-20,2.1c-7.8-2.6-15.5-5.3-23.3-7.7c-2.6-0.8-2.9-2.2-2.5-4.4c1.5-4,2.6-8,3.9-12.1l0,0   c1.9-1.6,0.2-4.4,1.9-6c0.1-0.6,0.1-1.2,0.2-1.8C435.3,141.2,435.6,141,440.5,142.4z" />	<path class="st116" d="M451.4,128.6c-3-0.1-5.4-2.2-8.5-2.4c-2.1-0.1-1.8-2.4-1.3-3.6c1.7-4,1.5-8.5,3.8-12.3   c1.3-2.8,1.8-5.9,2.7-8.8c1.3-4.7,2.7-5.3,7.6-3.1c0.3,0.1,0.6,0.1,0.9,0.2c2,1.6,4.9,0.3,6.8,2.1c2.1,0.6,4.1,1.3,6.2,1.9   c1.7,1.5,4.2,0.6,6,2c9.3,4.4,10.2,10.7,6.8,19.6c-3.4,9-9.3,11.4-18.9,8.5c-1.6-1.8-4.2-0.6-5.9-2.1l0,0   C455.7,129,453.1,130.1,451.4,128.6z" />	<path class="st117" d="M453.4,178.6c3.6-1.1,7,1.2,10.7,0.4c3.2-0.7,6.4-1.1,9.3-2.5c-0.2,2.6-2.6,3.3-4.2,3.5   C463.9,180.7,458.4,182,453.4,178.6z" />	<path class="st118" d="M455.6,98.4c-4.7-1.7-6.5,0.4-7.3,4.8c-0.5,2.4-0.3,5.4-2.9,7.1c-0.7-4.1,1.8-7.5,2.6-11.3   C448.7,95.7,452.5,95.5,455.6,98.4z" />	<path class="st119" d="M431.5,154.5c0.4,4.6-0.8,8.6-3.9,12.1C427.5,162.1,428.5,158,431.5,154.5z" />	<path class="st120" d="M440.5,142.4c-3.7-0.9-5.4,1.4-6.9,4.2c-0.1-2.1-0.9-4.5,1.5-5.7C437.1,139.9,439.2,140,440.5,142.4z" />	<path class="st119" d="M433.4,148.4c-0.3,2.1,1.4,4.9-1.9,6C431.8,152.4,430.2,149.6,433.4,148.4z" />	<path class="st121" d="M459.5,148.4c-2.1-0.4-4.9,1.4-6.1-1.9C455.6,146.9,458.3,145.3,459.5,148.4z" />	<path class="st122" d="M463.2,100.7c-2.4-0.4-5.2,0.7-6.8-2.1C459,98.3,461.5,98.2,463.2,100.7z" />	<path class="st123" d="M475.4,104.6c-2.1-0.4-4.8,1-6-2C471.7,102.4,473.9,102.5,475.4,104.6z" />	<path class="st124" d="M465.5,150.5c-2.3,0.3-4.4,0-6-2C461.6,148.8,464.3,147.3,465.5,150.5z" />	<path class="st125" d="M451.4,128.6c2.3-0.3,4.5-0.1,6,2C455.3,130.3,452.6,131.6,451.4,128.6z" />	<path class="st125" d="M457.4,130.6c2.3-0.2,4.6-0.4,5.9,2.1C461.3,132.1,458.5,133.6,457.4,130.6z" /></g></svg>